# xmcd CD database file
#
# Track frame offsets:
#	150
#	78667
#	128855
#	167996
#	173744
#	231926
#	252156
#	262272
#	274664
#
# Disc length: 4462 seconds
#
# Revision: 0
# Processed by: cddbd v1.5.2PL0 Copyright (c) Steve Scherf et al.
# Submitted via: CDex 1.83
#
DISCID=7f116c09
DTITLE=Roy Eldridge - Tour de Force 1957 All Stars At Newport
DYEAR=1958
DGENRE=Jazz
TTITLE0=Steeplechase
TTITLE1=Tour De Force
TTITLE2=I'm Through With Love, The Nearness Of You
TTITLE3=Introduction
TTITLE4=I Can't Believe That You're In Love With Me
TTITLE5=Day By Day
TTITLE6=Embraceable You
TTITLE7=Moonglow
TTITLE8=Sweet Georgia Brown
EXTD=YEAR: 1958
EXTT0=
EXTT1=
EXTT2=
EXTT3=
EXTT4=
EXTT5=
EXTT6=
EXTT7=
EXTT8=
PLAYORDER=
